<?xml version="1.0" encoding="UTF-8" standalone="no"?>
<!-- Created with Inkscape (http://www.inkscape.org/) -->

<svg
   xmlns:dc="http://purl.org/dc/elements/1.1/"
   xmlns:cc="http://creativecommons.org/ns#"
   xmlns:rdf="http://www.w3.org/1999/02/22-rdf-syntax-ns#"
   xmlns:svg="http://www.w3.org/2000/svg"
   xmlns="http://www.w3.org/2000/svg"
   version="1.1"
   width="350.40625"
   height="366.03125"
   id="svg3027">
  <defs
     id="defs3029" />
  <metadata
     id="metadata3032">
    <rdf:RDF>
      <cc:Work
         rdf:about="">
        <dc:format>image/svg+xml</dc:format>
        <dc:type
           rdf:resource="http://purl.org/dc/dcmitype/StillImage" />
        <dc:title></dc:title>
      </cc:Work>
    </rdf:RDF>
  </metadata>
  <g
     transform="translate(-424.875,-383.5625)"
     id="layer1">
    <path
       d="m 555.83793,749.04378 -10.97347,-15.7457 5.55507,-11.6857 4.4091,-9.6326 -4.12022,-6.7662 -0.167,-7.29372 -2.54662,-8.17679 6.9358,-10.57253 -2.09697,-6.08069 7.64178,-9.56203 -3.24689,-14.30549 6.25484,-11.26227 c -3.95484,1.21824 -10.258,4.24032 -10.258,4.24032 0,0 -12.7369,12.58015 -14.43863,11.57177 -1.70172,-1.0084 -5.00863,1.39519 -7.026,0.63323 -2.01736,-0.76197 -6.15582,-3.74563 -6.15582,-3.74563 l -12.44634,2.41383 -4.82455,-4.47663 -11.48614,10.00191 -16.75006,-4.402 -0.51494,-4.80666 8.78091,0.78867 1.51171,-4.4289 2.8251,-10.15145 6.42523,-4.2763 2.52906,-5.75037 7.99309,-0.56861 7.73215,-1.65037 9.02174,-5.2186 4.28641,0.62165 6.70637,8.7748 22.63006,-10.84671 9.10284,-1.64158 c 0,0 0.17128,-0.30644 0.18445,-0.32799 2.49567,-5.88069 4.88802,-11.5048 5.11104,-11.99204 0.46584,-1.01773 -6.46498,-4.19645 -6.46498,-4.19645 l 0.73009,-5.19909 -8.68092,-4.38591 -11.2425,4.88948 -4.6683,-6.84525 c 0,0 1.68413,-6.83286 2.30526,-8.18984 0.62112,-1.35697 -12.33716,-1.7291 -12.33716,-1.7291 l -1.17807,-17.17339 -3.04038,-1.39167 -6.82934,10.41505 -20.53095,-14.31223 -4.41026,0.24959 -2.14121,-6.96014 -11.9758,-3.41957 -16.67869,17.59189 -13.50464,-7.2125 -4.16132,0.98217 -19.48863,1.35557 -0.14664,-14.02057 -3.18304,-0.25408 -1.30181,-6.54156 28.91188,-10.75517 3.11907,4.89887 31.77798,1.82947 1.35836,3.71489 19.10791,6.68414 30.49654,-6.55864 4.044,8.20916 11.98318,1.60144 4.2527,-5.23636 8.49396,-0.23625 c 0,0 3.94362,-7.9179 4.4758,-6.47459 0.70514,1.91241 1.44458,3.57277 2.17219,5.01534 l -1.44343,-5.78155 c 4.96924,5.94862 6.51422,-1.88347 9.00013,-5.84714 l 1.3582,-6.04572 -1.01563,-7.16666 -1.83361,-4.92911 -8.20608,-3.99672 -4.52525,4.63044 -13.83278,-5.36934 -9.4438,-10.30274 -4.48988,2.00029 -1.43488,-10.00491 -3.55185,-1.62578 -5.57337,5.86909 -6.71679,-22.49244 c 0,0 4.17084,-6.48411 4.89638,-8.06922 0.72555,-1.58511 -2.26239,-14.95464 -2.26239,-14.95464 l 8.657,-3.22039 0.81243,0.85303 8.78794,14.81407 5.26253,2.16823 10.5557,18.2352 10.01568,-3.56078 8.24342,12.39964 6.15599,1.71799 1.24056,-4.58738 7.67474,-0.47376 0.84608,-9.95752 c 0,0 1.36434,-0.85843 1.92997,-1.21305 -0.95783,-6.22966 -3.93015,-21.97303 -3.93015,-21.97303 l 6.72181,-2.97202 0.30503,-7.79941 15.14761,-11.69407 -0.36109,-19.03332 8.7638,-7.43319 -3.15062,-13.53971 6.25756,-3.45947 10.97347,15.74572 -5.58348,11.67268 -4.40914,9.63266 4.10723,6.79458 0.167,7.29374 2.55962,8.14837 -6.9358,10.57253 2.11238,6.12211 -7.62877,9.53362 3.21847,14.29248 -6.8059,12.31603 -0.75512,4.87832 10.62922,-2.7988 10.82522,-8.48292 5.36865,6.06603 7.95243,-3.78346 4.57281,-8.93906 11.0914,-6.43648 6.14919,2.33351 6.22864,2.61044 14.71317,-11.72104 5.27761,6.26494 -6.5717,4.89661 -8.43235,12.19019 -10.21725,12.33549 -9.6347,3.25402 -7.92576,7.40432 c 0,0 -16.50174,2.50728 -21.14268,-2.01351 -4.64093,-4.52081 -9.0104,1.8901 -9.0104,1.8901 0,0 -12.93072,1.5057 -14.40838,1.06897 -1.47766,-0.43671 -9.5806,10.48627 -9.5806,10.48627 l 11.72344,11.56222 1.97105,9.00907 1.52686,4.54811 5.78038,0.9618 2.42569,3.03493 -3.52576,3.19769 6.31165,0.55199 15.47553,5.88471 5.73175,0.76771 0.17222,8.25844 10.02396,1.15143 -1.06685,6.3853 9.91991,1.37876 0.25969,10.39493 -12.29292,-0.84965 -1.01805,4.55175 -11.25633,3.26785 0.66365,-5.50443 -7.31509,-9.39712 -3.23167,-0.44818 -7.36467,7.45494 2.59393,12.80374 -26.04015,1.55299 -3.066,11.27844 -8.10925,7.3547 -0.66638,-2.29837 -1.23323,2.76922 7.20211,1.23452 5.49988,3.37665 2.69088,-6.32929 9.33456,-2.22288 5.02627,5.46252 7.8038,-0.38031 14.22942,7.95667 5.88352,5.99238 4.96669,9.42197 11.90373,1.32449 3.34853,14.00835 -9.24096,11.85442 -0.42763,-0.64252 0.0674,-0.0722 -0.18107,0.0202 -3.24599,-7.77514 0.0225,-4.62938 -6.44676,-3.26017 -8.30641,3.6558 c 0,0 -3.5991,-6.02787 -3.56873,-6.99493 0.0303,-0.96707 -6.75593,-3.71101 -6.75593,-3.71101 l -8.14288,6.377 -10.36834,-0.99975 -2.11022,-8.90494 c -0.35545,-1.48551 -12.52876,-8.51859 -12.52876,-8.51859 0,0 -0.64928,0.16797 -1.01192,0.25855 l -1.44726,5.48944 -9.85025,0.64649 c 0,0 -1.01459,6.27798 -0.93314,8.64604 0.0815,2.36806 4.23435,24.31182 4.23435,24.31182 l -6.72181,2.97203 -0.30504,7.7994 -15.16061,11.72251 0.38951,19.0463 -8.75078,7.4047 3.10918,13.5552 -6.21612,3.444 z m 32.57364,-149.02598 8.12201,-10.23578 15.57985,2.90405 3.73626,-3.58249 1.56754,-4.02529 -7.0003,-7.15657 2.30211,-5.02942 7.59213,2.40972 0.41596,-3.76193 -3.72615,-2.22109 -0.0899,-7.08664 -2.06608,-1.11754 c 0,0 -6.1945,2.24092 -6.28629,1.89574 l -4.8741,-5.59507 -3.12497,2.247 -0.92201,-9.32337 c -2.33945,-0.5643 -4.10193,-0.94962 -4.10193,-0.94962 0,0 -0.0258,-0.50612 -0.0346,-0.60011 l -7.29847,4.90763 -1.16302,-1.28844 -2.67538,-0.53724 -5.33819,9.86035 -9.85928,-0.83548 1.35346,10.48316 8.90948,6.96504 -3.65616,7.53712 z m 121.71559,19.55738 -2.73486,-3.48575 8.41543,-5.77109 -1.35719,-6.12012 -8.24708,-3.15629 -6.99998,0.5764 -8.42163,-6.60426 -3.39951,2.39628 -8.5174,-1.66472 0.41067,-9.60694 6.67425,1.33658 9.34756,-2.2513 4.35351,4.6047 7.79344,2.5706 -0.85708,-2.5575 2.5971,-2.14494 2.57458,-9.30382 3.76143,6.49888 5.22303,-3.45185 7.50929,2.44054 5.42873,-3.97632 2.26806,-6.83215 17.34131,0.85778 -0.004,5.56566 4.65097,12.43931 10.09339,0.32401 6.47508,10.18113 -7.79735,3.82008 -19.99798,5.2466 -6.99089,6.93867 -9.49376,-6.06397 -10.11071,5.27006 c 0,0 -3.6121,0.74929 -4.59517,-0.24745 -0.98306,-0.99677 -5.39293,2.17119 -5.39293,2.17119 z m -128.36142,-72.91427 -4.67808,-5.09695 c 1.58684,2.54199 3.17713,4.1331 4.67808,5.09695 z m 15.50821,-10.15425 0.95028,-0.42424 -0.17852,-1.93759 -0.62032,-0.14646 z"
       id="path2997-5-3-9"
       style="fill:#000000;stroke:#000000;stroke-width:1.07206786px;stroke-linecap:butt;stroke-linejoin:miter;stroke-opacity:1" />
  </g>
</svg>
